<svg xmlns="http://www.w3.org/2000/svg"  viewBox="0 0 50 50" width="50px" height="50px"><path d="M 2.90625 10 C 1.375 10 0.148438 11.214844 0 12.6875 C -0.00390625 12.730469 -0.00390625 12.769531 0 12.8125 L 0 28.8125 C 0.109375 34.4375 4.679688 39 10.3125 39 C 13.738281 39 16.691406 37.28125 18.53125 34.6875 C 20.425781 37.210938 23.328125 39 26.6875 39 C 29.097656 39 31.328125 38.132813 33.09375 36.71875 C 33.238281 37.371094 33.617188 37.980469 34.1875 38.40625 C 35.414063 39.324219 37.230469 39.183594 38.1875 37.90625 L 41.5 33.5 L 44.8125 37.90625 C 45.71875 39.113281 47.476563 39.378906 48.71875 38.40625 L 48.75 38.4375 C 48.769531 38.421875 48.761719 38.390625 48.78125 38.375 C 48.800781 38.359375 48.824219 38.359375 48.84375 38.34375 L 48.8125 38.3125 C 49.828125 37.554688 50.003906 36.328125 49.6875 35.21875 C 49.6875 35.1875 49.6875 35.15625 49.6875 35.125 C 49.707031 34.917969 49.664063 34.710938 49.5625 34.53125 C 49.5625 34.519531 49.5625 34.511719 49.5625 34.5 C 49.554688 34.480469 49.542969 34.457031 49.53125 34.4375 C 49.519531 34.425781 49.511719 34.417969 49.5 34.40625 L 49.46875 34.34375 C 49.449219 34.320313 49.429688 34.300781 49.40625 34.28125 L 45.125 28.59375 L 49.5 22.8125 C 50.449219 21.542969 50.152344 19.746094 48.90625 18.8125 C 48.292969 18.351563 47.539063 18.140625 46.8125 18.21875 C 46.085938 18.296875 45.386719 18.671875 44.90625 19.3125 L 41.59375 23.78125 L 38.1875 19.40625 C 38.183594 19.398438 38.160156 19.414063 38.15625 19.40625 C 37.222656 18.191406 35.421875 17.859375 34.1875 18.90625 C 34.179688 18.910156 34.195313 18.929688 34.1875 18.9375 C 34.183594 18.941406 34.160156 18.933594 34.15625 18.9375 C 33.613281 19.359375 33.269531 19.960938 33.125 20.59375 C 31.488281 19.3125 29.449219 18.507813 27.25 18.40625 C 27.214844 18.40625 27.191406 18.375 27.15625 18.375 C 27.066406 18.339844 26.972656 18.320313 26.875 18.3125 C 26.855469 18.3125 26.832031 18.3125 26.8125 18.3125 C 26.769531 18.3125 26.730469 18.3125 26.6875 18.3125 C 26.625 18.316406 26.5625 18.328125 26.5 18.34375 C 26.46875 18.351563 26.4375 18.363281 26.40625 18.375 C 23.160156 18.503906 20.359375 20.117188 18.59375 22.59375 C 16.699219 20.0625 13.773438 18.3125 10.40625 18.3125 C 8.722656 18.3125 7.191406 18.832031 5.78125 19.5625 L 5.78125 12.8125 C 5.78125 11.28125 4.488281 10 2.90625 10 Z M 2.90625 12 C 3.523438 12 3.8125 12.34375 3.8125 12.8125 L 3.8125 21.1875 C 3.808594 21.566406 4.019531 21.917969 4.355469 22.089844 C 4.695313 22.261719 5.101563 22.226563 5.40625 22 C 6.851563 20.914063 8.527344 20.28125 10.40625 20.28125 C 13.507813 20.28125 16.285156 22.179688 17.71875 24.78125 C 17.894531 25.113281 18.242188 25.320313 18.617188 25.316406 C 18.996094 25.308594 19.335938 25.089844 19.5 24.75 C 20.820313 22.109375 23.527344 20.316406 26.71875 20.28125 C 26.75 20.28125 26.78125 20.28125 26.8125 20.28125 C 31.367188 20.28125 35.089844 24.035156 35 28.6875 C 35 33.242188 31.242188 37 26.6875 37 C 23.585938 37 20.808594 35.132813 19.375 32.53125 C 19.199219 32.199219 18.851563 31.992188 18.476563 31.996094 C 18.097656 32.003906 17.757813 32.222656 17.59375 32.5625 C 16.261719 35.230469 13.542969 37 10.3125 37 C 5.757813 37 2.105469 33.375 2 28.8125 L 2 12.90625 C 2.054688 12.378906 2.4375 12 2.90625 12 Z M 47.03125 20.21875 C 47.25 20.199219 47.5 20.265625 47.6875 20.40625 C 48.042969 20.671875 48.15625 21.261719 47.90625 21.59375 L 43.09375 28 C 42.832031 28.351563 42.832031 28.835938 43.09375 29.1875 L 47.78125 35.40625 C 47.78125 35.417969 47.78125 35.425781 47.78125 35.4375 L 47.875 35.53125 C 48.136719 36.046875 48.097656 36.488281 47.65625 36.78125 C 47.613281 36.800781 47.570313 36.820313 47.53125 36.84375 C 47.171875 37.15625 46.671875 37.042969 46.40625 36.6875 L 42.3125 31.21875 C 42.125 30.957031 41.824219 30.800781 41.5 30.800781 C 41.175781 30.800781 40.875 30.957031 40.6875 31.21875 L 36.59375 36.6875 C 36.351563 37.007813 35.78125 37.09375 35.40625 36.8125 C 35.050781 36.546875 34.9375 35.925781 35.1875 35.59375 L 40 29.3125 C 40.277344 28.953125 40.277344 28.453125 40 28.09375 L 35.1875 21.6875 C 34.9375 21.355469 35.050781 20.765625 35.40625 20.5 C 35.429688 20.480469 35.449219 20.460938 35.46875 20.4375 C 35.648438 20.28125 35.855469 20.25 36.0625 20.28125 C 36.269531 20.3125 36.460938 20.417969 36.59375 20.59375 C 36.605469 20.605469 36.613281 20.613281 36.625 20.625 L 40.8125 26 C 41 26.25 41.296875 26.398438 41.609375 26.398438 C 41.921875 26.398438 42.21875 26.25 42.40625 26 L 46.5 20.5 C 46.621094 20.339844 46.8125 20.238281 47.03125 20.21875 Z M 10.3125 22 C 6.675781 22 3.71875 24.957031 3.71875 28.59375 C 3.71875 32.230469 6.675781 35.1875 10.3125 35.1875 C 13.949219 35.1875 16.90625 32.230469 16.90625 28.59375 C 16.90625 24.957031 13.949219 22 10.3125 22 Z M 26.8125 22 C 23.175781 22 20.21875 24.957031 20.21875 28.59375 C 20.21875 32.230469 23.175781 35.1875 26.8125 35.1875 C 30.449219 35.1875 33.40625 32.230469 33.40625 28.59375 C 33.40625 24.957031 30.449219 22 26.8125 22 Z M 10.3125 24 C 12.875 24 14.90625 26.03125 14.90625 28.59375 C 14.90625 31.15625 12.875 33.21875 10.3125 33.21875 C 7.75 33.21875 5.6875 31.15625 5.6875 28.59375 C 5.6875 26.03125 7.75 24 10.3125 24 Z M 26.8125 24 C 29.375 24 31.40625 26.03125 31.40625 28.59375 C 31.40625 31.15625 29.375 33.21875 26.8125 33.21875 C 24.25 33.21875 22.1875 31.15625 22.1875 28.59375 C 22.1875 26.03125 24.25 24 26.8125 24 Z M 36.9375 27.34375 L 37.9375 28.6875 L 36.875 30.0625 C 36.9375 29.617188 37 29.179688 37 28.71875 C 37 28.707031 37 28.699219 37 28.6875 C 37.007813 28.230469 36.988281 27.785156 36.9375 27.34375 Z"/></svg>